<svg width="117" height="30" viewBox="0 0 117 30" fill="none" xmlns="http://www.w3.org/2000/svg">
<path d="M0.757102 15.3636C0.757102 12.5152 1.1321 9.89394 1.8821 7.5C2.6321 5.10606 3.7268 2.89773 5.16619 0.875H8.27983C7.71922 1.625 7.1965 2.54545 6.71165 3.63636C6.2268 4.72727 5.80256 5.92424 5.43892 7.22727C5.07528 8.52273 4.79119 9.86742 4.58665 11.2614C4.3821 12.6477 4.27983 14.0152 4.27983 15.3636C4.27983 17.1667 4.45786 18.9924 4.81392 20.8409C5.16998 22.6894 5.65104 24.4053 6.2571 25.9886C6.86316 27.572 7.53741 28.8636 8.27983 29.8636H5.16619C3.7268 27.8409 2.6321 25.6326 1.8821 23.2386C1.1321 20.8447 0.757102 18.2197 0.757102 15.3636ZM30.919 3.72727V27H27.6918L15.8622 9.93182H15.6463V27H12.1349V3.72727H15.3849L27.2259 20.8182H27.4418V3.72727H30.919ZM56.2571 15.3636C56.2571 17.8485 55.8026 19.9848 54.8935 21.7727C53.9844 23.553 52.7382 24.9242 51.1548 25.8864C49.5791 26.8409 47.7874 27.3182 45.7798 27.3182C43.7647 27.3182 41.9654 26.8409 40.3821 25.8864C38.8063 24.9242 37.5639 23.5492 36.6548 21.7614C35.7457 19.9735 35.2912 17.8409 35.2912 15.3636C35.2912 12.8788 35.7457 10.7462 36.6548 8.96591C37.5639 7.17803 38.8063 5.80682 40.3821 4.85227C41.9654 3.89015 43.7647 3.40909 45.7798 3.40909C47.7874 3.40909 49.5791 3.89015 51.1548 4.85227C52.7382 5.80682 53.9844 7.17803 54.8935 8.96591C55.8026 10.7462 56.2571 12.8788 56.2571 15.3636ZM52.7798 15.3636C52.7798 13.4697 52.473 11.875 51.8594 10.5795C51.2533 9.27651 50.42 8.29167 49.3594 7.625C48.3063 6.95076 47.1132 6.61364 45.7798 6.61364C44.4389 6.61364 43.242 6.95076 42.1889 7.625C41.1359 8.29167 40.3026 9.27651 39.6889 10.5795C39.0829 11.875 38.7798 13.4697 38.7798 15.3636C38.7798 17.2576 39.0829 18.8561 39.6889 20.1591C40.3026 21.4545 41.1359 22.4394 42.1889 23.1136C43.242 23.7803 44.4389 24.1136 45.7798 24.1136C47.1132 24.1136 48.3063 23.7803 49.3594 23.1136C50.42 22.4394 51.2533 21.4545 51.8594 20.1591C52.473 18.8561 52.7798 17.2576 52.7798 15.3636ZM60.6349 27V3.72727H68.9304C70.7334 3.72727 72.2296 4.03788 73.419 4.65909C74.616 5.2803 75.5099 6.14015 76.1009 7.23864C76.6918 8.32955 76.9872 9.59091 76.9872 11.0227C76.9872 12.447 76.688 13.7008 76.0895 14.7841C75.4986 15.8598 74.6046 16.697 73.4077 17.2955C72.2183 17.8939 70.7221 18.1932 68.919 18.1932H62.6349V15.1705H68.6009C69.7372 15.1705 70.6615 15.0076 71.3736 14.6818C72.0933 14.3561 72.6198 13.8826 72.9531 13.2614C73.2865 12.6402 73.4531 11.8939 73.4531 11.0227C73.4531 10.1439 73.2827 9.38257 72.9418 8.73864C72.6084 8.0947 72.0819 7.60227 71.3622 7.26136C70.6501 6.91288 69.7145 6.73864 68.5554 6.73864H64.1463V27H60.6349ZM72.1236 16.5L77.8736 27H73.8736L68.2372 16.5H72.1236ZM81.2599 3.72727H85.5213L92.9304 21.8182H93.2031L100.612 3.72727H104.874V27H101.533V10.1591H101.317L94.4531 26.9659H91.6804L84.8168 10.1477H84.6009V27H81.2599V3.72727ZM116.24 15.3636C116.24 18.2197 115.865 20.8447 115.115 23.2386C114.365 25.6326 113.27 27.8409 111.831 29.8636H108.717C109.278 29.1136 109.801 28.1932 110.286 27.1023C110.77 26.0114 111.195 24.8182 111.558 23.5227C111.922 22.2197 112.206 20.8712 112.411 19.4773C112.615 18.0833 112.717 16.7121 112.717 15.3636C112.717 13.5682 112.539 11.7462 112.183 9.89773C111.827 8.04924 111.346 6.33333 110.74 4.75C110.134 3.16667 109.46 1.875 108.717 0.875H111.831C113.27 2.89773 114.365 5.10606 115.115 7.5C115.865 9.89394 116.24 12.5152 116.24 15.3636Z" fill="black"/>
</svg>
