<svg width="24" height="24" viewBox="0 0 24 24" fill="none" xmlns="http://www.w3.org/2000/svg">
<path d="M11 0V3H13V0H11ZM4.22266 2.80859L2.80859 4.22266L4.92969 6.34375L6.34375 4.92969L4.22266 2.80859ZM19.7773 2.80859L17.6562 4.92969L19.0703 6.34375L21.1914 4.22266L19.7773 2.80859ZM12 5C8.14585 5 5 8.14585 5 12C5 15.8541 8.14585 19 12 19C15.8542 19 19 15.8541 19 12C19 8.14585 15.8542 5 12 5ZM12 7C14.7733 7 17 9.22673 17 12C17 14.7733 14.7733 17 12 17C9.22673 17 7 14.7733 7 12C7 9.22673 9.22673 7 12 7ZM10 10C9.73478 10 9.48043 10.1054 9.29289 10.2929C9.10536 10.4804 9 10.7348 9 11C9 11.2652 9.10536 11.5196 9.29289 11.7071C9.48043 11.8946 9.73478 12 10 12C10.2652 12 10.5196 11.8946 10.7071 11.7071C10.8946 11.5196 11 11.2652 11 11C11 10.7348 10.8946 10.4804 10.7071 10.2929C10.5196 10.1054 10.2652 10 10 10ZM14 10C13.7348 10 13.4804 10.1054 13.2929 10.2929C13.1054 10.4804 13 10.7348 13 11C13 11.2652 13.1054 11.5196 13.2929 11.7071C13.4804 11.8946 13.7348 12 14 12C14.2652 12 14.5196 11.8946 14.7071 11.7071C14.8946 11.5196 15 11.2652 15 11C15 10.7348 14.8946 10.4804 14.7071 10.2929C14.5196 10.1054 14.2652 10 14 10ZM0 11V13H3V11H0ZM21 11V13H24V11H21ZM10 13C10 14.105 10.895 15 12 15C13.105 15 14 14.105 14 13H10ZM4.92969 17.6562L2.80859 19.7773L4.22266 21.1914L6.34375 19.0703L4.92969 17.6562ZM19.0703 17.6562L17.6562 19.0703L19.7773 21.1914L21.1914 19.7773L19.0703 17.6562ZM11 21V24H13V21H11Z" fill="black"/>
</svg>
